Coordinates
version=1
nRows=16
nColumns=22
inDegrees=yes

Units are S.I. units (second, meters, Newtons, ...)
If the header above contains a line with 'inDegrees', this indicates whether rotational values are in degrees (yes) or radians (no).

endheader
time	pelvis_tilt	pelvis_list	pelvis_rotation	pelvis_tx	pelvis_ty	pelvis_tz	hip_flexion_r	hip_adduction_r	hip_rotation_r	knee_angle_r	ankle_angle_r	subtalar_angle_r	hip_flexion_l	hip_adduction_l	hip_rotation_l	knee_angle_l	ankle_angle_l	subtalar_angle_l	lumbar_extension	lumbar_bending	lumbar_rotation
      3.21000000	      1.22129359	     -0.84243180	    168.99165083	      0.30272692	      0.91420336	     -0.37586823	     15.71656186	     -6.76707412	     -0.08919144	    -69.92017664	    -13.26099657	      7.50016481	     20.42213330	      8.88541257	     -6.29574496	    -27.51954596	      9.36228611	    -14.36651112	     -4.98120080	     -8.67670375	      1.71477612
      3.22000000	      1.17197682	     -0.81698400	    169.90034101	      0.29449524	      0.91517930	     -0.37496298	     17.61219544	     -6.77718533	      0.39611694	    -70.89204391	    -11.52281539	      7.60719105	     19.56066226	      9.29680321	     -5.38961339	    -27.14224644	      9.63996903	    -14.58969562	     -5.24581405	     -8.45855128	      1.19963059
      3.23000000	      1.03404387	     -0.75674329	    170.83582436	      0.28626256	      0.91631005	     -0.37397288	     19.29326244	     -6.75178238	      0.91857100	    -71.50608466	     -9.71616775	      7.76227198	     18.55953353	      9.66564103	     -4.47631471	    -26.72278361	      9.92495496	    -14.67703468	     -5.60394253	     -8.20933773	      0.68565735
      3.24000000	      0.87123895	     -0.70309844	    171.80123038	      0.27805259	      0.91747959	     -0.37287078	     20.84598513	     -6.73238431	      1.47531979	    -71.78669145	     -7.96368050	      7.86717114	     17.48813505	     10.03448295	     -3.49518241	    -26.23748369	     10.16476173	    -14.86693030	     -5.97342810	     -7.96324117	      0.17708105
      3.25000000	      0.69379413	     -0.64257675	    172.78072806	      0.26985555	      0.91865491	     -0.37171703	     22.26560989	     -6.69261883	      2.07658353	    -71.72952612	     -6.26442546	      7.91268995	     16.37521518	     10.36081195	     -2.53113076	    -25.72428569	     10.41069620	    -15.02242070	     -6.33929073	     -7.70600501	     -0.34502221
      3.26000000	      0.51786468	     -0.57518961	    173.77352821	      0.26166395	      0.91980326	     -0.37052971	     23.56292934	     -6.63213598	      2.71507186	    -71.34352239	     -4.67681203	      7.85734548	     15.24198126	     10.64443601	     -1.55592487	    -25.18576296	     10.65252088	    -15.15736833	     -6.67942652	     -7.43926070	     -0.87347671
      3.27000000	      0.31928818	     -0.49040843	    174.79180093	      0.25349469	      0.92097367	     -0.36930778	     24.69514571	     -6.54689064	      3.36533135	    -70.62251608	     -3.24896971	      7.60298766	     14.06886643	     10.88570510	     -0.51275562	    -24.63434076	     10.87175734	    -15.31777925	     -7.03438535	     -7.16126708	     -1.40110158
      3.28000000	      0.13661399	     -0.38652477	    175.82219648	      0.24531432	      0.92206441	     -0.36807629	     25.70262259	     -6.43297428	      4.02456891	    -69.58564809	     -1.94524723	      7.19179971	     12.91771063	     11.06493076	      0.53126455	    -24.10705439	     11.14585655	    -15.45589191	     -7.34827619	     -6.86243058	     -1.93688598
      3.29000000	     -0.01323238	     -0.25269747	    176.91154653	      0.23711700	      0.92307727	     -0.36676752	     26.58297358	     -6.30712762	      4.62867526	    -68.22819754	     -0.80621490	      6.77874929	     11.80760496	     11.18505424	      1.65496472	    -23.60778714	     11.37566059	    -15.55015584	     -7.60766536	     -6.52963655	     -2.53522328
      3.30000000	     -0.14760702	     -0.08980666	    178.03586720	      0.22886361	      0.92402592	     -0.36542688	     27.31549507	     -6.17225503	      5.17694388	    -66.55757163	      0.19961622	      6.33267379	     10.71705052	     11.23736493	      2.81062134	    -23.13089991	     11.63270549	    -15.63246475	     -7.82375174	     -6.17147774	     -3.16564734
      3.31000000	     -0.27256602	      0.09871431	    179.18783595	      0.22056199	      0.92490598	     -0.36403694	     27.89711101	     -6.03636145	      5.66383540	    -64.58781669	      1.07828176	      5.87796705	      9.64497467	     11.22952182	      4.00875810	    -22.68057248	     11.89681585	    -15.71142327	     -8.00372433	     -5.78624297	     -3.82326357
      3.32000000	     -0.37951988	      0.29593141	    180.35388363	      0.21225255	      0.92567764	     -0.36265095	     28.34966642	     -5.90731381	      6.10119199	    -62.34270972	      1.86847864	      5.45278958	      8.61454392	     11.17197151	      5.21495122	    -22.26947447	     12.19152162	    -15.78822688	     -8.14501514	     -5.40770091	     -4.49576654
      3.33000000	     -0.39843299	      0.50666747	    181.55552646	      0.20397754	      0.92620289	     -0.36119429	     28.76092800	     -5.80094256	      6.45713175	    -59.84863958	      2.51170896	      5.27719658	      7.72726748	     11.07518851	      6.46401175	    -21.94030242	     12.48948148	    -15.81052282	     -8.16702181	     -5.02120531	     -5.22259973
      3.34000000	     -0.53613329	      0.72550159	    182.70583137	      0.19558964	      0.92690064	     -0.35981338	     28.88431254	     -5.67262749	      6.78784855	    -57.06655912	      3.02216074	      4.90854426	      6.67290398	     10.91464363	      7.67363147	    -21.53202636	     12.72805092	    -15.90000564	     -8.29960897	     -4.64323818	     -5.86267295
      3.35000000	     -0.57916985	      0.93507159	    183.86545641	      0.18722222	      0.92730715	     -0.35839290	     28.99327075	     -5.57897223	      7.05059726	    -54.08100539	      3.45324697	      4.75793943	      5.77072710	     10.73702406	      8.87102209	    -21.19887923	     13.00251769	    -15.92850504	     -8.30610210	     -4.29118094	     -6.53432126
      3.36000000	     -0.61247876	      1.13135042	    185.00119764	      0.17883518	      0.92758320	     -0.35698701	     28.99372973	     -5.49391895	      7.28786062	    -50.89563069	      3.81959129	      4.70882752	      4.89861960	     10.53885070	     10.03506160	    -20.88489363	     13.28042906	    -15.93095469	     -8.28617803	     -3.97185199	     -7.18490449
